<?xml version="1.0" encoding="UTF-8" standalone="no"?>
<svg width="1366px" height="236px" viewBox="0 0 1366 236" version="1.1" xmlns="http://www.w3.org/2000/svg" xmlns:xlink="http://www.w3.org/1999/xlink" xmlns:sketch="http://www.bohemiancoding.com/sketch/ns">
    <!-- Generator: Sketch 3.4.4 (17249) - http://www.bohemiancoding.com/sketch -->
    <title>Artboard 9</title>
    <desc>Created with Sketch.</desc>
    <defs></defs>
    <g id="Page-1" stroke="none" stroke-width="1" fill="none" fill-rule="evenodd" sketch:type="MSPage">
        <g id="Artboard-9" sketch:type="MSArtboardGroup" stroke="#C7C7C7">
            <g id="Group" sketch:type="MSLayerGroup" transform="translate(630.000000, -39.000000)">
                <path d="M305.005787,230.772919 C289.033566,235.052663 272.6213,225.723038 268.387104,209.920805 C264.152909,194.118572 273.701535,177.832747 289.673757,173.553003 C305.645979,169.273259 322.058245,178.602884 326.29244,194.405117 C330.526636,210.20735 320.978009,226.493175 305.005787,230.772919 M378.725722,180.355662 C377.573265,176.054631 376.017181,171.984408 374.247364,168.043005 L394.129129,138.746628 L362.6022,108.986824 L334.41608,127.210365 C325.3435,122.844155 315.470561,120.123391 305.206594,119.224589 L290.463007,91.5706966 L247.999094,102.948868 L249.057719,134.269635 C240.627914,140.177418 233.430985,147.482261 227.757006,155.799799 L194.232784,154.101273 L181.809564,195.637484 L213.668771,211.08013 C214.113861,215.366272 214.801365,219.66923 215.953822,223.970261 C217.10628,228.271291 218.662364,232.341514 220.419975,236.275967 L200.550415,265.579294 L232.086996,295.336512 L260.263465,277.115557 C269.336045,281.481767 279.22119,284.209482 289.482602,285.098747 L304.216538,312.755226 L346.680451,301.377054 L345.612174,270.058873 C354.054186,264.158041 361.241464,256.855784 366.915443,248.538246 L400.427459,250.229821 L412.869981,208.688438 L381.003678,193.257914 C380.565683,188.95965 379.87818,184.656692 378.725722,180.355662" id="Page-1-Copy-8" stroke-width="6" opacity="0.6" sketch:type="MSShapeGroup"></path>
                <path d="M159.313513,92.7654869 C148.144636,90.0558354 141.292481,79.1715908 144.037286,68.4595222 C146.782092,57.7474537 158.083581,51.2674159 169.252458,53.9770673 C180.421336,56.6867188 187.27349,67.5709634 184.528685,78.283032 C181.78388,88.9951005 170.482391,95.4751383 159.313513,92.7654869 M218.461622,86.9300784 C219.172836,84.0668819 219.576019,81.207516 219.813973,78.354002 L240.736316,67.7772333 L232.00222,40.3853294 L209.816423,41.872995 C205.956715,36.4228292 201.10528,31.6685214 195.442822,27.8441049 L195.763774,7.0744368 L167.495542,0 L158.06451,18.48977 C151.282521,19.1998266 144.767265,21.1162378 138.810187,24.1096446 L119.91868,12.3351875 L99.3951554,32.4050494 L112.913506,51.6077247 C111.79696,54.2346178 110.815563,56.9492794 110.104349,59.8124758 C109.393136,62.6756723 108.989953,65.5350382 108.747151,68.3805958 L87.8296558,78.9653209 L96.5701758,106.358833 L118.749549,104.869559 C122.609256,110.319725 127.465539,115.081989 133.129574,118.900057 L132.802197,139.668117 L161.070429,146.742554 L170.495037,128.251176 C177.281874,127.549076 183.790705,125.631057 189.747783,122.63765 L208.634442,134.404151 L229.170816,114.337505 L215.644463,95.1395703 C216.769012,92.5079364 217.750409,89.7932748 218.461622,86.9300784" id="Page-1-Copy-10" stroke-width="6" opacity="0.45" sketch:type="MSShapeGroup"></path>
                <path d="M487.451713,171.373632 C475.38837,168.716821 467.633082,156.572139 470.160478,144.251954 C472.687873,131.93177 484.540073,124.10541 496.603416,126.762222 C508.666759,129.419033 516.422047,141.563715 513.894651,153.8839 C511.367256,166.204084 499.515056,174.030444 487.451713,171.373632 M549.427394,160.720211 C550.084485,157.431092 550.410778,154.158631 550.559771,150.89943 L572.64293,138.018979 L562.235351,107.172569 L538.455031,109.7524 C534.104529,103.699593 528.714547,98.4788458 522.487979,94.3494729 L522.056469,70.6832852 L491.42128,63.7550308 L481.979903,85.1884311 C474.720025,86.2677974 467.791812,88.710364 461.503548,92.3571773 L440.766825,79.7020404 L419.466982,103.377707 L434.70856,124.706899 C433.607155,127.743086 432.654233,130.873833 431.997143,134.162952 C431.340052,137.452072 431.013759,140.724533 430.85926,143.974866 L408.781607,156.864185 L419.196148,187.712169 L442.969506,185.130764 C447.320008,191.183571 452.715495,196.413185 458.94352,200.535265 L459.368068,224.199878 L490.003257,231.128133 L499.437671,209.693158 C506.703054,208.622659 513.624306,206.178518 519.91257,202.531705 L540.643787,215.177974 L561.957555,191.505457 L546.707558,170.181983 C547.817382,167.140077 548.770303,164.00933 549.427394,160.720211" id="Page-1-Copy-11" stroke-width="6" opacity="0.45" sketch:type="MSShapeGroup"></path>
                <ellipse id="Oval-1-Copy-4" stroke-width="4" opacity="0.45" sketch:type="MSShapeGroup" cx="329.964539" cy="82.5907404" rx="7.09777625" ry="7.12433725"></ellipse>
                <path d="M67.3293079,187.949932 C58.6234729,190.113239 49.8079458,184.914484 47.6606412,176.331089 C45.5133367,167.747694 50.8480792,159.03275 59.5539142,156.869444 C68.2597493,154.706137 77.0752764,159.904892 79.2225809,168.488287 C81.3698855,177.071682 76.0351429,185.786626 67.3293079,187.949932 M103.467841,155.006844 L114.000036,139.637098 L97.9868347,123.545511 L83.2658704,132.959711 C78.619824,130.557674 73.5455871,129.021814 68.2529619,128.449635 L60.8883662,113.631432 L38.8555444,119.279208 L39.1195625,135.917534 C34.7127387,138.976018 30.9300133,142.787627 27.9246616,147.150982 L10.6266963,145.938939 L3.8359268,167.875974 L20.1499558,176.369507 C20.3411323,178.649184 20.6573492,180.940034 21.2137051,183.234163 C21.770061,185.528292 22.5369493,187.703618 23.4091404,189.808728 L12.8831864,205.182278 L28.9013949,221.272582 L43.6173518,211.859665 C48.2633982,214.261702 53.3438761,215.801365 58.6352678,216.368458 L65.994856,231.187944 L88.0276778,225.540168 L87.7586522,208.903126 C92.1717171,205.848445 95.949435,202.038119 98.9547867,197.674764 L116.246511,198.883004 L123.047295,176.943402 L106.729493,168.45624 C106.54209,166.170192 106.225873,163.879343 105.669517,161.585213 C105.113161,159.291084 104.346273,157.115758 103.467841,155.006844 L103.467841,155.006844 Z" id="Page-1-Copy-12" stroke-width="6" opacity="0.6" sketch:type="MSShapeGroup"></path>
                <ellipse id="Oval-1-Copy-5" stroke-width="4" opacity="0.45" sketch:type="MSShapeGroup" cx="154.305228" cy="177.85161" rx="7.09777625" ry="7.12433725"></ellipse>
                <ellipse id="Oval-1-Copy-6" stroke-width="4" opacity="0.450618004" sketch:type="MSShapeGroup" cx="54.1051977" cy="80.1164321" rx="7.09777625" ry="7.12433725"></ellipse>
                <ellipse id="Oval-1-Copy-7" stroke-width="4" opacity="0.450618004" sketch:type="MSShapeGroup" cx="436.349756" cy="244.657934" rx="7.09777625" ry="7.12433725"></ellipse>
                <path d="M632.857134,194.598626 C624.929019,196.711008 616.78264,192.10672 614.681115,184.307842 C612.57959,176.508964 617.319393,168.471257 625.247508,166.358875 C633.175624,164.246493 641.322002,168.850782 643.423527,176.64966 C645.525052,184.448538 640.78525,192.486245 632.857134,194.598626 M665.34728,163.924679 L674.730299,149.711404 L659.852299,135.273887 L646.550375,144.115305 C642.26885,141.997156 637.609599,140.677298 632.765791,140.241365 L625.808238,126.825333 L605.768349,132.345903 L606.267592,147.541065 C602.289294,150.407304 598.892805,153.951309 596.215023,157.986602 L580.394139,157.162951 L574.530854,177.314258 L589.565824,184.805846 C589.775825,186.885249 590.100227,188.972808 590.644052,191.059427 C591.187877,193.146045 591.922186,195.120683 592.751602,197.029451 L583.374343,211.246098 L598.256898,225.68236 L611.554268,216.842197 C615.835792,218.960346 620.500804,220.283576 625.343406,220.714882 L632.296404,234.132169 L652.336293,228.611598 L651.832496,213.417691 C655.816554,210.554824 659.208488,207.012074 661.886271,202.976781 L677.701394,203.79706 L683.573788,183.643244 L668.53547,176.157537 C668.328817,174.072252 668.004416,171.984693 667.46059,169.898075 C666.916765,167.811457 666.182457,165.836818 665.34728,163.924679 L665.34728,163.924679 Z" id="Page-1-Copy-14" stroke-width="6" opacity="0.6" sketch:type="MSShapeGroup"></path>
                <ellipse id="Oval-1-Copy-9" stroke-width="4" opacity="0.45" sketch:type="MSShapeGroup" cx="595.927581" cy="103.622361" rx="7.09777625" ry="7.12433725"></ellipse>
            </g>
        </g>
    </g>
</svg>